<svg xmlns="http://www.w3.org/2000/svg" version="1.0" viewBox="0 0 2600.000000 2600.000000" preserveAspectRatio="xMidYMid meet">
<metadata fill="#b4436c">
Created by potrace 1.15, written by Peter Selinger 2001-2017
</metadata>
<g transform="translate(0.000000,2600.000000) scale(0.100000,-0.100000)" fill="#b4436c" stroke="none">
<path d="M13610 23064 c-370 -69 -653 -526 -774 -1254 -30 -179 -53 -427 -40 -439 5 -5 41 -16 79 -25 39 -9 86 -21 106 -26 l36 -10 -28 -159 c-15 -87 -30 -180 -33 -206 -7 -60 -143 -528 -262 -902 l-54 -172 -578 -4 c-542 -3 -583 -5 -670 -25 -287 -64 -502 -177 -699 -365 -204 -195 -332 -421 -399 -707 -16 -68 -18 -154 -21 -941 l-4 -866 -57 -13 c-387 -86 -749 -373 -930 -735 -48 -97 -88 -210 -115 -330 -21 -88 -21 -115 -24 -1331 l-4 -1241 -147 -6 c-376 -15 -706 -164 -966 -437 -179 -189 -295 -410 -359 -685 -21 -89 -21 -104 -24 -1812 l-3 -1723 -791 0 c-681 0 -800 -2 -867 -16 -362 -74 -612 -374 -612 -734 0 -394 287 -708 683 -750 57 -6 1462 -10 3723 -10 l3631 0 7 -122 c15 -272 -63 -938 -165 -1398 -79 -357 -174 -649 -299 -919 -170 -367 -340 -622 -553 -827 -263 -254 -545 -394 -927 -459 -59 -11 -195 -20 -360 -25 -250 -7 -269 -9 -344 -34 -98 -33 -169 -80 -241 -158 -201 -217 -194 -559 16 -769 84 -84 185 -137 303 -160 69 -13 6213 -13 6282 0 271 52 464 282 464 553 0 250 -162 465 -410 543 -43 13 -115 19 -325 25 -336 10 -503 37 -710 117 -450 172 -770 488 -1049 1037 -189 370 -306 725 -405 1221 -87 435 -149 1012 -136 1252 l7 123 3632 0 c2305 0 3665 4 3724 10 336 36 594 266 667 595 24 108 17 270 -18 377 -78 242 -265 422 -517 500 l-75 23 -822 3 -822 3 -4 1722 -3 1722 -22 92 c-64 275 -176 489 -356 680 -258 274 -588 424 -968 440 l-148 6 0 1181 c0 739 -4 1215 -10 1271 -59 520 -418 966 -920 1143 -47 16 -111 35 -142 42 l-57 13 -4 866 c-3 945 0 895 -63 1088 -128 400 -473 743 -881 877 -214 71 -194 69 -978 73 l-711 4 32 342 c18 188 33 343 33 345 1 1 42 2 91 2 79 0 90 2 90 18 0 17 -34 221 -45 274 -6 27 -6 27 57 30 l63 3 3 636 c2 596 1 637 -15 651 -10 8 -104 61 -209 117 l-191 101 -132 0 -132 0 -148 -79 c-81 -44 -153 -81 -159 -83 -7 -2 -26 37 -45 92 -68 191 -119 295 -209 427 -59 85 -168 195 -239 240 -87 54 -226 90 -299 77z m149 -210 c170 -70 354 -361 461 -730 17 -56 30 -112 30 -124 0 -27 -32 -168 -36 -155 -1 6 -10 44 -19 85 -24 104 -65 189 -109 228 -35 30 -41 32 -114 32 -90 0 -144 21 -185 69 -27 32 -35 61 -18 61 5 0 32 20 59 45 181 163 71 468 -168 468 -72 0 -134 -28 -187 -86 -98 -106 -95 -263 5 -366 26 -27 53 -50 61 -53 11 -3 11 -9 -2 -35 -35 -67 -105 -103 -202 -103 -64 0 -91 -15 -132 -68 -45 -59 -76 -169 -118 -411 -19 -112 -36 -205 -37 -207 -2 -1 -16 0 -31 3 l-28 6 7 71 c28 306 122 657 240 890 162 321 344 453 523 380z m-284 -933 c54 -25 84 -60 138 -160 51 -95 40 -98 110 30 20 37 52 80 71 97 34 30 102 59 113 48 7 -7 -126 -317 -169 -395 -16 -29 -26 -57 -21 -60 4 -4 37 -20 73 -34 138 -57 259 -179 308 -308 12 -33 80 -259 151 -502 72 -243 153 -512 180 -598 28 -86 51 -159 51 -163 0 -3 -369 -6 -821 -6 -767 0 -821 1 -815 17 18 45 144 462 226 743 107 372 155 520 182 575 11 22 55 74 97 115 71 70 120 101 229 147 l32 13 -34 68 c-34 68 -166 374 -166 386 0 11 24 6 65 -13z m-132 -352 c-23 -21 -123 -99 -123 -96 0 2 4 17 10 33 5 16 21 69 36 118 l26 89 29 -68 c16 -38 26 -72 22 -76z m721 27 c20 -63 36 -117 36 -120 0 -5 -91 64 -123 94 -7 6 41 140 49 140 2 0 19 -51 38 -114z m466 77 c18 -31 21 -46 15 -95 -4 -32 -11 -58 -15 -58 -5 0 -11 30 -15 68 -3 37 -9 79 -11 95 -7 37 0 34 26 -10z m639 -138 l-1 -110 -19 100 c-14 76 -16 106 -8 124 19 44 29 3 28 -114z m-744 -231 c43 -11 65 -21 65 -31 0 -8 -18 -118 -40 -244 -22 -126 -40 -233 -41 -237 -3 -32 -34 105 -65 288 -44 266 -48 256 81 224z m185 -756 c0 -7 11 -130 25 -273 14 -143 25 -273 24 -290 l0 -30 -10 25 c-6 14 -46 141 -89 283 -43 142 -82 266 -85 277 -6 19 -2 20 64 20 50 0 71 -4 71 -12z m1875 -1379 c315 -100 517 -337 533 -624 l4 -90 -79 -76 c-150 -144 -338 -228 -581 -260 -110 -15 -331 -7 -437 16 -183 38 -362 127 -479 236 -87 82 -130 151 -154 249 -35 139 -73 181 -172 188 -113 8 -188 -53 -210 -168 -33 -180 -205 -351 -448 -447 -288 -115 -690 -108 -967 17 -102 46 -226 132 -285 198 -56 63 -120 180 -120 221 -1 61 -63 148 -123 170 -44 17 -114 13 -156 -9 -52 -26 -85 -68 -100 -126 -7 -27 -16 -65 -21 -85 -15 -56 -80 -149 -152 -214 -115 -105 -294 -192 -478 -232 -127 -27 -421 -25 -547 4 -217 51 -413 161 -520 292 l-46 56 6 75 c9 137 71 275 175 390 111 123 274 210 437 233 17 2 1119 4 2450 3 2179 -1 2425 -3 2470 -17z m-5173 -1369 c339 -101 718 -91 1043 28 44 16 89 32 100 36 31 12 -88 -98 -157 -145 -347 -236 -813 -201 -1112 83 l-71 68 49 -21 c28 -11 94 -33 148 -49z m2238 -8 c167 -47 247 -56 450 -56 242 0 395 26 598 104 39 16 72 24 72 20 0 -17 -154 -139 -228 -181 -270 -155 -614 -155 -884 0 -74 42 -228 164 -228 181 0 4 33 -4 73 -20 39 -15 106 -37 147 -48z m2115 27 c203 -69 379 -94 600 -85 201 8 408 51 562 117 l48 20 -45 -46 c-58 -60 -147 -124 -235 -168 -301 -152 -667 -118 -937 86 -81 62 -156 135 -123 122 11 -5 70 -25 130 -46z m-2725 -76 c50 -80 198 -233 297 -307 150 -113 327 -192 523 -233 60 -12 130 -17 240 -17 211 0 393 40 565 126 173 87 367 252 476 403 29 41 56 75 59 75 3 0 25 -30 49 -66 59 -87 188 -218 287 -291 260 -191 593 -281 904 -243 232 29 441 116 658 276 l22 16 0 -246 0 -246 -3035 0 -3035 0 0 255 0 254 66 -50 c584 -442 1399 -319 1824 275 30 42 57 76 60 76 3 -1 21 -26 40 -57z m4695 -1461 c213 -72 370 -208 454 -394 47 -103 61 -194 61 -397 l0 -179 -44 -59 c-220 -290 -689 -469 -1186 -450 -309 12 -575 91 -802 239 -205 134 -325 293 -364 483 -17 86 -36 124 -81 167 -117 112 -342 54 -391 -102 -6 -19 -18 -66 -27 -105 -50 -216 -262 -425 -562 -555 -357 -154 -841 -172 -1219 -45 -198 66 -375 173 -504 304 -102 103 -160 204 -184 325 -20 95 -27 109 -79 163 -52 54 -118 78 -197 70 -67 -6 -107 -24 -155 -73 -42 -42 -58 -78 -73 -164 -31 -177 -188 -367 -410 -499 -346 -206 -839 -266 -1275 -155 -359 91 -637 290 -753 537 -46 101 -28 352 37 495 96 212 305 372 537 412 26 4 1645 7 3597 6 l3550 -1 70 -23z m-1333 -1863 c450 -148 956 -145 1407 7 74 25 157 57 184 70 27 14 51 23 54 21 9 -9 -144 -155 -223 -214 -205 -151 -428 -229 -684 -240 -269 -11 -521 63 -746 218 -82 57 -211 173 -244 220 l-21 28 77 -35 c42 -20 130 -54 196 -75z m-5924 -10 c374 -115 797 -130 1177 -40 112 27 255 74 359 118 43 18 80 32 82 30 2 -2 -29 -37 -69 -79 -436 -448 -1127 -504 -1622 -129 -69 52 -192 168 -206 193 -7 12 15 7 86 -23 53 -22 139 -53 193 -70z m2814 62 c124 -53 305 -104 466 -133 109 -19 161 -22 367 -22 206 0 258 3 367 22 203 36 360 85 577 179 27 12 -27 -53 -97 -118 -484 -445 -1182 -453 -1675 -17 -68 60 -143 147 -117 136 8 -4 58 -25 112 -47z m-582 -160 c71 -104 224 -270 327 -353 226 -183 463 -295 763 -359 141 -31 484 -34 625 -6 277 55 530 165 735 322 147 112 329 307 418 448 l30 48 61 -88 c260 -377 651 -634 1105 -725 95 -20 142 -23 326 -23 185 1 229 4 320 23 281 61 562 193 755 356 28 23 56 46 63 50 9 6 12 -66 12 -343 l0 -351 -4165 0 -4165 0 0 382 0 382 48 -45 c216 -207 516 -360 842 -431 92 -20 133 -22 330 -22 196 0 239 3 330 23 468 101 846 354 1110 744 29 43 56 74 60 70 4 -4 35 -50 70 -102z m6535 -1714 c202 -71 344 -198 435 -389 63 -134 70 -189 70 -569 l0 -331 -30 -57 c-194 -362 -684 -648 -1265 -737 -168 -26 -580 -26 -745 0 -456 71 -852 261 -1106 528 -131 138 -222 301 -250 443 -25 133 -33 155 -80 205 -58 62 -125 85 -201 70 -69 -12 -123 -41 -159 -82 -37 -43 -48 -71 -69 -178 -60 -309 -320 -595 -721 -791 -601 -294 -1424 -293 -2029 1 -280 136 -499 323 -621 530 -56 95 -81 161 -105 279 -27 131 -60 181 -149 220 -69 30 -123 33 -186 10 -104 -39 -147 -95 -170 -221 -43 -229 -176 -432 -398 -610 -250 -200 -598 -345 -966 -403 -145 -22 -475 -31 -625 -16 -673 68 -1224 383 -1426 815 l-31 65 5 333 c4 355 5 360 62 493 68 158 242 322 405 380 126 46 -131 44 5220 42 l5055 -2 80 -28z m-7612 -2207 c-108 -197 -326 -440 -513 -572 -117 -83 -342 -196 -471 -237 -205 -64 -282 -75 -529 -76 -196 0 -239 3 -333 23 -326 68 -582 198 -841 426 -117 104 -288 321 -354 452 l-21 41 67 -44 c92 -60 299 -165 424 -213 217 -85 469 -146 723 -175 169 -20 493 -19 660 0 434 51 869 201 1155 399 36 24 67 45 68 45 2 1 -13 -30 -35 -69z m5212 -114 c282 -137 579 -222 911 -261 150 -18 471 -20 624 -5 436 44 854 181 1174 387 37 24 70 43 71 41 6 -5 -81 -145 -143 -233 -31 -44 -109 -131 -172 -195 -280 -280 -638 -456 -1020 -501 -146 -17 -415 -6 -545 21 -506 107 -932 420 -1185 873 l-32 57 104 -65 c56 -37 153 -90 213 -119z m-4189 118 c277 -175 641 -306 1014 -366 128 -20 180 -23 440 -23 316 0 399 8 639 61 300 67 605 191 826 335 42 27 78 49 81 49 10 0 -41 -89 -107 -185 -261 -384 -669 -652 -1130 -742 -134 -26 -473 -26 -614 1 -214 40 -451 134 -635 254 -202 131 -400 329 -521 522 -52 82 -90 150 -86 150 3 0 45 -25 93 -56z m-500 -241 c460 -829 1417 -1281 2352 -1113 633 114 1184 496 1528 1060 l63 103 18 -33 c10 -17 52 -84 94 -148 435 -671 1210 -1062 2003 -1012 548 35 1023 244 1425 626 l111 106 0 -546 0 -546 -5665 0 -5665 0 0 565 0 565 108 -108 c681 -688 1709 -862 2577 -436 385 189 728 507 948 881 33 57 61 103 63 103 1 0 19 -30 40 -67z" fill="#b4436c"/>
<path d="M14756 22944 c-64 -20 -137 -93 -159 -159 -62 -179 62 -364 243 -365 109 0 209 75 243 181 21 63 21 101 2 165 -42 143 -189 223 -329 178z" fill="#b4436c"/>
</g>
</svg>