<?xml version="1.0" encoding="UTF-8"?>
<svg id="Layer_1" data-name="Layer 1" xmlns="http://www.w3.org/2000/svg" viewBox="0 0 279.33 523.05">
  <defs>
    <style>
      .cls-1 {
        fill: #fff;
        stroke-width: 0px;
      }
    </style>
  </defs>
  <path class="cls-1" d="M241.11,425.6c-18.44-46.22-13.56-49.11-30-77.78s-38-53.56-39.78-65.33,4-33.11-1.78-44.67-18.89-25.56-21.11-26.44c0,0,10.67-32.44,10.22-40.81,0,0,3.33,17.04,8.15,25.93,4.81,8.89,9.93,16.74,11.78,20.15s9.48,11.7,11.85,15.19c2.37,3.48,13.7,16.15,14.37,19.11.26,1.16.53,3.65,1.14,6.27-.59.56-1.21,1.13-1.88,1.71-5.48,4.74-1.33,8.44,1.04,8.74,1.09.14,2.78-1.27,4.53-2.88.77.62,1.67,1.01,2.73,1.05,6.15.22,9.41-3.26,8.22-7.48-.13-.47-.38-1-.69-1.57,2.17-1.62,4.92-2.82,8.46-1.12,6.81,3.26,11.26,6.96,15.26,5.48,4-1.48,11.58-4.29,12.59-7.85,2.04-7.15,2.67-6.67-4-24.74-6.67-18.07-33.62-9.37-35.11-6.67-5.48,9.92,2.55,21.01-3.34,26.76-2.7-3.19-5.49-6.42-6.95-8.81-3.19-5.19-6.81-11.85-7.93-14.37-1.11-2.52-6.22-10.22-10-17.85-3.78-7.63-8.22-18.3-10-26-1.78-7.7-1.85-26.81-3.04-38.22s-1.78-13.85-8.89-19.26c-7.11-5.41-8.44-2.74-11.93-7.48-1.15-1.56-2.33-3.7-3.4-5.86,10.1,5.94,21.63,14.24,33.02,25.71,31.78,32,53.11,36,57.33,35.33s0-8.89,4.67-11.11c4.67-2.22,10.89-11.56,12.22-17.11,1.33-5.56.67-15.78-11.33-18.22-12-2.44-18.89-2.89-38.22-15.11s-33.56-22-31.33-22.67c2.22-.67,7.78-6.89,9.44-10.11,1.67-3.22.28-16.33-2.83-21.22-3.11-4.89-11.28-6.28-16.56-6.61-5.28-.33-6-5.33-8.61-8.22-2.61-2.89-27-2.17-33.72-1.61-6.72.56-8.72,11-9.39,14.94-.67,3.94-1.5,6.78-2.06,8s-7.06,8.39-8.83,10.56-.5,3.06.33,3.39c.83.33-.17,5.83-.94,11.67-.78,5.83,1.17,5.83,2.39,6.72.99.72,8.8,1.59,11.73,1.89,1.14.78,2.69,2.1,3.27,3.8.96,2.81,8.07,18.44,7.33,22.67,0,0-38.07-11.48-40.74-13.48-2.67-2-20.89-20.81-22.37-24.81-1.48-4-2.07-8.81-.3-11.7s4.59-4.89,7.33-4.22c2.74.67,7.78,2.89,9.04,1.78,1.26-1.11,2.22-3.7,2.89-6.96s2.74-4.15,3.19-6.52c.44-2.37.07-2.3,1.93-2.22,1.85.07,4.22.67,3.41-2.07s-2.67-7.48-2.22-10.3c.44-2.81,2.96-3.7,3.11-5.63.15-1.93-1.04-6.3-.3-7.41.74-1.11,6.3-9.26,6.3-9.26,0,0-5.33-1.04-6.52-2.89-1.19-1.85-9.7-12.52-15.26-13.7-5.56-1.19-12.74-4.74-20.15-3.93s-14.15,4.59-17.33,10.15-6.3,10.89-6,18.59c.3,7.7,2.81,25.11,1.7,25.63-1.11.52-7.33-1.63-8.59,0-1.26,1.63-4.67,6.44-2,12.3,2.04,4.48,2.65,4.92,2.82,4.88-.85.85-10.44,10.59-15.04,19.86-4.81,9.7-7.48,16.3-8.37,21.41-.89,5.11-1.48,6-2.22,10.22-.74,4.22-2.15,20.15-.74,23.7s5.78,20,5.93,21.41c.15,1.41,3.26,14.3,3.26,17.04s.3,20.67-.44,23.85c-.74,3.19-4.74,23.41-5.56,27.48s-1.41,18.74-1.41,22.81.52,62.3.15,64.59-3.41,40.3-5.04,44.22c0,0,12.67-2.59,13.78-3.56,0,0-1.7,42.07-1.93,45.78-.22,3.7-2.22,64.37-1.63,66.96s-.07,31.78.44,32.22c.52.44,5.7,5.56,10.37,4.15,4.67-1.41,5.19-2.22,7.11-.89,1.93,1.33,4.22,8,14.37,9.04,10.15,1.04,27.78,1.78,30,0s4.74-5.41,1.7-7.7c-3.04-2.3-22.96-12-20.96-15.63,0,0,15.26,0,16-1.04,0,0,3.85,8.59,13.48,10.37s36.74-1.78,53.19,4.3,41.04,14.81,54.67,7.26c13.63-7.56,28.74-16.15,46.67-13.93,17.93,2.22,23.26,8.15,31.56,2.96,8.3-5.19,10.52-8.89,10.52-8.89,0,0-19.78-27.85-38.22-74.07ZM108.52,267.53c-.44,1.11-19.26,66.44-20.15,69.41-.89,2.96-15.19,66.81-15.04,70.74.15,3.93-5.85,45.04-5.63,52.15.22,7.11,0,24.81,0,24.81,0,0-11.03-6.07-11.62-8.67-.59-2.59-.59-32.52-.52-35.78.07-3.26-1.19-25.63-2.52-35.63-1.33-10,9.56-26.22,10.15-31.19.59-4.96,2.89-29.56,3.19-34.81.3-5.26,0-26.81,2.3-34.3,2.3-7.48,6.52-26.22,7.11-37.33.59-11.11.59-34.15,1.56-43.63.96-9.48,1.26-11.48,1.26-11.48,0,0,13.26,4.59,14.81,4s3.78-6,3.78-6c0,0,8.52,5.11,9.48,4.52,0,0-1.56,19.78-.52,25.7s2.81,26.37,2.37,27.48ZM100,159.93c-2.83,4.44-6.06,9-3.61,15.56,2.44,6.56,4.11,12.22,4.89,12.72,0,0-20.89-1.94-21.06-4.44-.17-2.5.11-20.44.22-23.67.11-3.22-1.56-36.56-3.61-39.67,0,0,32,17,41.83,19.39,0,0-15.83,15.67-18.67,20.11Z"/>
</svg>